<svg width="1000" height="182" viewBox="0 0 1000 182" xmlns="http://www.w3.org/2000/svg" role="img" aria-label="Who I Am">
<rect x=".75" y=".75" width="998.5" height="180.5" rx="8" fill="#1b1d1b" stroke="#2e322e" stroke-width="1.5"/>
<g fill="#f1f1ec" shape-rendering="crispEdges"><rect x="28" y="26" width="4" height="4"/><rect x="44" y="26" width="4" height="4"/><rect x="28" y="30" width="4" height="4"/><rect x="44" y="30" width="4" height="4"/><rect x="28" y="34" width="4" height="4"/><rect x="44" y="34" width="4" height="4"/><rect x="28" y="38" width="4" height="4"/><rect x="36" y="38" width="4" height="4"/><rect x="44" y="38" width="4" height="4"/><rect x="28" y="42" width="4" height="4"/><rect x="36" y="42" width="4" height="4"/><rect x="44" y="42" width="4" height="4"/><rect x="28" y="46" width="4" height="4"/><rect x="32" y="46" width="4" height="4"/><rect x="40" y="46" width="4" height="4"/><rect x="44" y="46" width="4" height="4"/><rect x="28" y="50" width="4" height="4"/><rect x="44" y="50" width="4" height="4"/><rect x="52" y="26" width="4" height="4"/><rect x="68" y="26" width="4" height="4"/><rect x="52" y="30" width="4" height="4"/><rect x="68" y="30" width="4" height="4"/><rect x="52" y="34" width="4" height="4"/><rect x="68" y="34" width="4" height="4"/><rect x="52" y="38" width="4" height="4"/><rect x="56" y="38" width="4" height="4"/><rect x="60" y="38" width="4" height="4"/><rect x="64" y="38" width="4" height="4"/><rect x="68" y="38" width="4" height="4"/><rect x="52" y="42" width="4" height="4"/><rect x="68" y="42" width="4" height="4"/><rect x="52" y="46" width="4" height="4"/><rect x="68" y="46" width="4" height="4"/><rect x="52" y="50" width="4" height="4"/><rect x="68" y="50" width="4" height="4"/><rect x="80" y="26" width="4" height="4"/><rect x="84" y="26" width="4" height="4"/><rect x="88" y="26" width="4" height="4"/><rect x="76" y="30" width="4" height="4"/><rect x="92" y="30" width="4" height="4"/><rect x="76" y="34" width="4" height="4"/><rect x="92" y="34" width="4" height="4"/><rect x="76" y="38" width="4" height="4"/><rect x="92" y="38" width="4" height="4"/><rect x="76" y="42" width="4" height="4"/><rect x="92" y="42" width="4" height="4"/><rect x="76" y="46" width="4" height="4"/><rect x="92" y="46" width="4" height="4"/><rect x="80" y="50" width="4" height="4"/><rect x="84" y="50" width="4" height="4"/><rect x="88" y="50" width="4" height="4"/><rect x="128" y="26" width="4" height="4"/><rect x="132" y="26" width="4" height="4"/><rect x="136" y="26" width="4" height="4"/><rect x="132" y="30" width="4" height="4"/><rect x="132" y="34" width="4" height="4"/><rect x="132" y="38" width="4" height="4"/><rect x="132" y="42" width="4" height="4"/><rect x="132" y="46" width="4" height="4"/><rect x="128" y="50" width="4" height="4"/><rect x="132" y="50" width="4" height="4"/><rect x="136" y="50" width="4" height="4"/><rect x="176" y="26" width="4" height="4"/><rect x="180" y="26" width="4" height="4"/><rect x="184" y="26" width="4" height="4"/><rect x="172" y="30" width="4" height="4"/><rect x="188" y="30" width="4" height="4"/><rect x="172" y="34" width="4" height="4"/><rect x="188" y="34" width="4" height="4"/><rect x="172" y="38" width="4" height="4"/><rect x="176" y="38" width="4" height="4"/><rect x="180" y="38" width="4" height="4"/><rect x="184" y="38" width="4" height="4"/><rect x="188" y="38" width="4" height="4"/><rect x="172" y="42" width="4" height="4"/><rect x="188" y="42" width="4" height="4"/><rect x="172" y="46" width="4" height="4"/><rect x="188" y="46" width="4" height="4"/><rect x="172" y="50" width="4" height="4"/><rect x="188" y="50" width="4" height="4"/><rect x="196" y="26" width="4" height="4"/><rect x="212" y="26" width="4" height="4"/><rect x="196" y="30" width="4" height="4"/><rect x="200" y="30" width="4" height="4"/><rect x="208" y="30" width="4" height="4"/><rect x="212" y="30" width="4" height="4"/><rect x="196" y="34" width="4" height="4"/><rect x="204" y="34" width="4" height="4"/><rect x="212" y="34" width="4" height="4"/><rect x="196" y="38" width="4" height="4"/><rect x="204" y="38" width="4" height="4"/><rect x="212" y="38" width="4" height="4"/><rect x="196" y="42" width="4" height="4"/><rect x="212" y="42" width="4" height="4"/><rect x="196" y="46" width="4" height="4"/><rect x="212" y="46" width="4" height="4"/><rect x="196" y="50" width="4" height="4"/><rect x="212" y="50" width="4" height="4"/></g>
<g shape-rendering="crispEdges"><rect x="448" y="26" width="8" height="8" fill="#5fb04a"></rect><rect x="672" y="26" width="8" height="8" fill="#1f4d1f"></rect><rect x="704" y="26" width="8" height="8" fill="#e8652a"></rect><rect x="712" y="26" width="8" height="8" fill="#e6e1d3"></rect><rect x="728" y="26" width="8" height="8" fill="#3f8f3a"></rect><rect x="736" y="26" width="8" height="8" fill="#8fe35f"></rect><rect x="752" y="26" width="8" height="8" fill="#2d6a2d"></rect><rect x="784" y="26" width="8" height="8" fill="#3f8f3a"></rect><rect x="792" y="26" width="8" height="8" fill="#3f8f3a"><animate attributeName="opacity" values="1;.25;1" dur="4.4s" begin="3.8s" repeatCount="indefinite"/></rect><rect x="808" y="26" width="8" height="8" fill="#5fb04a"></rect><rect x="816" y="26" width="8" height="8" fill="#1f4d1f"></rect><rect x="840" y="26" width="8" height="8" fill="#8fe35f"></rect><rect x="848" y="26" width="8" height="8" fill="#6cb4ee"><animate attributeName="opacity" values="1;.25;1" dur="5.9s" begin="3.2s" repeatCount="indefinite"/></rect><rect x="856" y="26" width="8" height="8" fill="#3f8f3a"></rect><rect x="864" y="26" width="8" height="8" fill="#5fb04a"></rect><rect x="872" y="26" width="8" height="8" fill="#1f4d1f"></rect><rect x="888" y="26" width="8" height="8" fill="#3f8f3a"></rect><rect x="896" y="26" width="8" height="8" fill="#2d6a2d"></rect><rect x="904" y="26" width="8" height="8" fill="#2d6a2d"></rect><rect x="912" y="26" width="8" height="8" fill="#5fb04a"></rect><rect x="920" y="26" width="8" height="8" fill="#2d6a2d"></rect><rect x="928" y="26" width="8" height="8" fill="#2d6a2d"></rect><rect x="936" y="26" width="8" height="8" fill="#e8652a"></rect><rect x="944" y="26" width="8" height="8" fill="#1f4d1f"></rect><rect x="952" y="26" width="8" height="8" fill="#5fb04a"></rect><rect x="960" y="26" width="8" height="8" fill="#1f4d1f"></rect><rect x="968" y="26" width="8" height="8" fill="#8fe35f"></rect><rect x="976" y="26" width="8" height="8" fill="#5fb04a"></rect><rect x="536" y="34" width="8" height="8" fill="#e6e1d3"></rect><rect x="624" y="34" width="8" height="8" fill="#e8652a"></rect><rect x="632" y="34" width="8" height="8" fill="#3f8f3a"><animate attributeName="opacity" values="1;.25;1" dur="5.7s" begin="2.8s" repeatCount="indefinite"/></rect><rect x="672" y="34" width="8" height="8" fill="#5fb04a"></rect><rect x="736" y="34" width="8" height="8" fill="#6cb4ee"></rect><rect x="752" y="34" width="8" height="8" fill="#2d6a2d"><animate attributeName="opacity" values="1;.25;1" dur="5.6s" begin="0.5s" repeatCount="indefinite"/></rect><rect x="760" y="34" width="8" height="8" fill="#5fb04a"></rect><rect x="784" y="34" width="8" height="8" fill="#e8652a"></rect><rect x="792" y="34" width="8" height="8" fill="#5fb04a"></rect><rect x="816" y="34" width="8" height="8" fill="#1f4d1f"></rect><rect x="824" y="34" width="8" height="8" fill="#2d6a2d"></rect><rect x="832" y="34" width="8" height="8" fill="#2d6a2d"><animate attributeName="opacity" values="1;.25;1" dur="5.9s" begin="3.4s" repeatCount="indefinite"/></rect><rect x="840" y="34" width="8" height="8" fill="#e6e1d3"></rect><rect x="848" y="34" width="8" height="8" fill="#3f8f3a"></rect><rect x="864" y="34" width="8" height="8" fill="#2d6a2d"></rect><rect x="880" y="34" width="8" height="8" fill="#8fe35f"></rect><rect x="896" y="34" width="8" height="8" fill="#3f8f3a"></rect><rect x="904" y="34" width="8" height="8" fill="#8fe35f"></rect><rect x="920" y="34" width="8" height="8" fill="#2d6a2d"></rect><rect x="928" y="34" width="8" height="8" fill="#2d6a2d"></rect><rect x="936" y="34" width="8" height="8" fill="#1f4d1f"></rect><rect x="944" y="34" width="8" height="8" fill="#8fe35f"><animate attributeName="opacity" values="1;.25;1" dur="3.3s" begin="1.1s" repeatCount="indefinite"/></rect><rect x="952" y="34" width="8" height="8" fill="#5fb04a"></rect><rect x="960" y="34" width="8" height="8" fill="#1f4d1f"></rect><rect x="968" y="34" width="8" height="8" fill="#6cb4ee"></rect><rect x="976" y="34" width="8" height="8" fill="#8fe35f"></rect><rect x="544" y="42" width="8" height="8" fill="#1f4d1f"></rect><rect x="696" y="42" width="8" height="8" fill="#3f8f3a"></rect><rect x="704" y="42" width="8" height="8" fill="#5fb04a"></rect><rect x="752" y="42" width="8" height="8" fill="#2d6a2d"><animate attributeName="opacity" values="1;.25;1" dur="4.3s" begin="3.7s" repeatCount="indefinite"/></rect><rect x="832" y="42" width="8" height="8" fill="#5fb04a"></rect><rect x="840" y="42" width="8" height="8" fill="#1f4d1f"></rect><rect x="848" y="42" width="8" height="8" fill="#e6e1d3"></rect><rect x="856" y="42" width="8" height="8" fill="#e6e1d3"></rect><rect x="864" y="42" width="8" height="8" fill="#e8652a"></rect><rect x="880" y="42" width="8" height="8" fill="#e6e1d3"></rect><rect x="888" y="42" width="8" height="8" fill="#3f8f3a"></rect><rect x="904" y="42" width="8" height="8" fill="#3f8f3a"></rect><rect x="912" y="42" width="8" height="8" fill="#3f8f3a"></rect><rect x="928" y="42" width="8" height="8" fill="#2d6a2d"></rect><rect x="936" y="42" width="8" height="8" fill="#2d6a2d"></rect><rect x="944" y="42" width="8" height="8" fill="#2d6a2d"></rect><rect x="952" y="42" width="8" height="8" fill="#3f8f3a"><animate attributeName="opacity" values="1;.25;1" dur="3.4s" begin="3.7s" repeatCount="indefinite"/></rect><rect x="960" y="42" width="8" height="8" fill="#8fe35f"></rect><rect x="968" y="42" width="8" height="8" fill="#1f4d1f"><animate attributeName="opacity" values="1;.25;1" dur="3.7s" begin="1.5s" repeatCount="indefinite"/></rect><rect x="976" y="42" width="8" height="8" fill="#e8652a"></rect></g>
<text x="28" y="86" font-family="'JetBrains Mono','Fira Code',ui-monospace,SFMono-Regular,Consolas,monospace" font-size="14" fill="#cfd3cf" xml:space="preserve">Hey, I'm Yossy - a developer from Indonesia who loves building web apps and automations that</text><text x="28" y="110" font-family="'JetBrains Mono','Fira Code',ui-monospace,SFMono-Regular,Consolas,monospace" font-size="14" fill="#cfd3cf" xml:space="preserve">simplify everyday work. I work at the intersection of web development, AI, and business</text><text x="28" y="134" font-family="'JetBrains Mono','Fira Code',ui-monospace,SFMono-Regular,Consolas,monospace" font-size="14" fill="#cfd3cf" xml:space="preserve">automation, and I try to learn something new every single day.</text>
</svg>
