<svg width="1000" height="58" viewBox="0 0 1000 58" xmlns="http://www.w3.org/2000/svg" role="img" aria-label="Stats">
<rect x=".75" y=".75" width="998.5" height="56.5" rx="8" fill="#1b1d1b" stroke="#2e322e" stroke-width="1.5"/>
<g fill="#f1f1ec" shape-rendering="crispEdges"><rect x="32" y="14" width="4" height="4"/><rect x="36" y="14" width="4" height="4"/><rect x="40" y="14" width="4" height="4"/><rect x="44" y="14" width="4" height="4"/><rect x="28" y="18" width="4" height="4"/><rect x="28" y="22" width="4" height="4"/><rect x="32" y="26" width="4" height="4"/><rect x="36" y="26" width="4" height="4"/><rect x="40" y="26" width="4" height="4"/><rect x="44" y="30" width="4" height="4"/><rect x="44" y="34" width="4" height="4"/><rect x="28" y="38" width="4" height="4"/><rect x="32" y="38" width="4" height="4"/><rect x="36" y="38" width="4" height="4"/><rect x="40" y="38" width="4" height="4"/><rect x="52" y="14" width="4" height="4"/><rect x="56" y="14" width="4" height="4"/><rect x="60" y="14" width="4" height="4"/><rect x="64" y="14" width="4" height="4"/><rect x="68" y="14" width="4" height="4"/><rect x="60" y="18" width="4" height="4"/><rect x="60" y="22" width="4" height="4"/><rect x="60" y="26" width="4" height="4"/><rect x="60" y="30" width="4" height="4"/><rect x="60" y="34" width="4" height="4"/><rect x="60" y="38" width="4" height="4"/><rect x="80" y="14" width="4" height="4"/><rect x="84" y="14" width="4" height="4"/><rect x="88" y="14" width="4" height="4"/><rect x="76" y="18" width="4" height="4"/><rect x="92" y="18" width="4" height="4"/><rect x="76" y="22" width="4" height="4"/><rect x="92" y="22" width="4" height="4"/><rect x="76" y="26" width="4" height="4"/><rect x="80" y="26" width="4" height="4"/><rect x="84" y="26" width="4" height="4"/><rect x="88" y="26" width="4" height="4"/><rect x="92" y="26" width="4" height="4"/><rect x="76" y="30" width="4" height="4"/><rect x="92" y="30" width="4" height="4"/><rect x="76" y="34" width="4" height="4"/><rect x="92" y="34" width="4" height="4"/><rect x="76" y="38" width="4" height="4"/><rect x="92" y="38" width="4" height="4"/><rect x="100" y="14" width="4" height="4"/><rect x="104" y="14" width="4" height="4"/><rect x="108" y="14" width="4" height="4"/><rect x="112" y="14" width="4" height="4"/><rect x="116" y="14" width="4" height="4"/><rect x="108" y="18" width="4" height="4"/><rect x="108" y="22" width="4" height="4"/><rect x="108" y="26" width="4" height="4"/><rect x="108" y="30" width="4" height="4"/><rect x="108" y="34" width="4" height="4"/><rect x="108" y="38" width="4" height="4"/><rect x="128" y="14" width="4" height="4"/><rect x="132" y="14" width="4" height="4"/><rect x="136" y="14" width="4" height="4"/><rect x="140" y="14" width="4" height="4"/><rect x="124" y="18" width="4" height="4"/><rect x="124" y="22" width="4" height="4"/><rect x="128" y="26" width="4" height="4"/><rect x="132" y="26" width="4" height="4"/><rect x="136" y="26" width="4" height="4"/><rect x="140" y="30" width="4" height="4"/><rect x="140" y="34" width="4" height="4"/><rect x="124" y="38" width="4" height="4"/><rect x="128" y="38" width="4" height="4"/><rect x="132" y="38" width="4" height="4"/><rect x="136" y="38" width="4" height="4"/></g>
<g shape-rendering="crispEdges"><rect x="508" y="14" width="8" height="8" fill="#2d6a2d"></rect><rect x="540" y="14" width="8" height="8" fill="#8fe35f"></rect><rect x="572" y="14" width="8" height="8" fill="#5fb04a"></rect><rect x="628" y="14" width="8" height="8" fill="#2d6a2d"><animate attributeName="opacity" values="1;.25;1" dur="4.0s" begin="0.1s" repeatCount="indefinite"/></rect><rect x="724" y="14" width="8" height="8" fill="#3f8f3a"></rect><rect x="756" y="14" width="8" height="8" fill="#3f8f3a"><animate attributeName="opacity" values="1;.25;1" dur="4.4s" begin="0.7s" repeatCount="indefinite"/></rect><rect x="780" y="14" width="8" height="8" fill="#5fb04a"></rect><rect x="788" y="14" width="8" height="8" fill="#1f4d1f"></rect><rect x="796" y="14" width="8" height="8" fill="#1f4d1f"></rect><rect x="812" y="14" width="8" height="8" fill="#3f8f3a"></rect><rect x="820" y="14" width="8" height="8" fill="#8fe35f"></rect><rect x="828" y="14" width="8" height="8" fill="#6cb4ee"><animate attributeName="opacity" values="1;.25;1" dur="3.5s" begin="0.1s" repeatCount="indefinite"/></rect><rect x="836" y="14" width="8" height="8" fill="#6cb4ee"></rect><rect x="844" y="14" width="8" height="8" fill="#1f4d1f"></rect><rect x="852" y="14" width="8" height="8" fill="#6cb4ee"></rect><rect x="860" y="14" width="8" height="8" fill="#6cb4ee"></rect><rect x="884" y="14" width="8" height="8" fill="#1f4d1f"></rect><rect x="900" y="14" width="8" height="8" fill="#3f8f3a"></rect><rect x="908" y="14" width="8" height="8" fill="#1f4d1f"></rect><rect x="916" y="14" width="8" height="8" fill="#3f8f3a"></rect><rect x="924" y="14" width="8" height="8" fill="#6cb4ee"></rect><rect x="932" y="14" width="8" height="8" fill="#6cb4ee"></rect><rect x="948" y="14" width="8" height="8" fill="#2d6a2d"></rect><rect x="956" y="14" width="8" height="8" fill="#1f4d1f"></rect><rect x="964" y="14" width="8" height="8" fill="#8fe35f"></rect><rect x="972" y="14" width="8" height="8" fill="#8fe35f"></rect><rect x="980" y="14" width="8" height="8" fill="#1f4d1f"></rect><rect x="484" y="22" width="8" height="8" fill="#8fe35f"></rect><rect x="524" y="22" width="8" height="8" fill="#2d6a2d"></rect><rect x="548" y="22" width="8" height="8" fill="#3f8f3a"></rect><rect x="628" y="22" width="8" height="8" fill="#6cb4ee"></rect><rect x="668" y="22" width="8" height="8" fill="#3f8f3a"></rect><rect x="708" y="22" width="8" height="8" fill="#6cb4ee"></rect><rect x="716" y="22" width="8" height="8" fill="#5fb04a"><animate attributeName="opacity" values="1;.25;1" dur="3.6s" begin="1.7s" repeatCount="indefinite"/></rect><rect x="748" y="22" width="8" height="8" fill="#1f4d1f"><animate attributeName="opacity" values="1;.25;1" dur="3.5s" begin="3.3s" repeatCount="indefinite"/></rect><rect x="756" y="22" width="8" height="8" fill="#2d6a2d"></rect><rect x="788" y="22" width="8" height="8" fill="#1f4d1f"></rect><rect x="812" y="22" width="8" height="8" fill="#3f8f3a"></rect><rect x="820" y="22" width="8" height="8" fill="#3f8f3a"></rect><rect x="836" y="22" width="8" height="8" fill="#2d6a2d"></rect><rect x="868" y="22" width="8" height="8" fill="#1f4d1f"><animate attributeName="opacity" values="1;.25;1" dur="5.9s" begin="3.0s" repeatCount="indefinite"/></rect><rect x="884" y="22" width="8" height="8" fill="#5fb04a"></rect><rect x="892" y="22" width="8" height="8" fill="#8fe35f"></rect><rect x="908" y="22" width="8" height="8" fill="#1f4d1f"></rect><rect x="916" y="22" width="8" height="8" fill="#6cb4ee"></rect><rect x="932" y="22" width="8" height="8" fill="#8fe35f"></rect><rect x="940" y="22" width="8" height="8" fill="#e6e1d3"></rect><rect x="956" y="22" width="8" height="8" fill="#1f4d1f"></rect><rect x="964" y="22" width="8" height="8" fill="#e8652a"></rect><rect x="972" y="22" width="8" height="8" fill="#3f8f3a"></rect><rect x="980" y="22" width="8" height="8" fill="#5fb04a"></rect><rect x="420" y="30" width="8" height="8" fill="#1f4d1f"><animate attributeName="opacity" values="1;.25;1" dur="5.3s" begin="1.4s" repeatCount="indefinite"/></rect><rect x="692" y="30" width="8" height="8" fill="#e6e1d3"></rect><rect x="700" y="30" width="8" height="8" fill="#e6e1d3"></rect><rect x="708" y="30" width="8" height="8" fill="#5fb04a"></rect><rect x="716" y="30" width="8" height="8" fill="#5fb04a"></rect><rect x="724" y="30" width="8" height="8" fill="#6cb4ee"></rect><rect x="732" y="30" width="8" height="8" fill="#e8652a"></rect><rect x="764" y="30" width="8" height="8" fill="#6cb4ee"></rect><rect x="772" y="30" width="8" height="8" fill="#2d6a2d"></rect><rect x="780" y="30" width="8" height="8" fill="#5fb04a"></rect><rect x="788" y="30" width="8" height="8" fill="#1f4d1f"></rect><rect x="820" y="30" width="8" height="8" fill="#6cb4ee"></rect><rect x="828" y="30" width="8" height="8" fill="#1f4d1f"></rect><rect x="852" y="30" width="8" height="8" fill="#1f4d1f"></rect><rect x="860" y="30" width="8" height="8" fill="#1f4d1f"></rect><rect x="868" y="30" width="8" height="8" fill="#8fe35f"></rect><rect x="876" y="30" width="8" height="8" fill="#5fb04a"></rect><rect x="892" y="30" width="8" height="8" fill="#e8652a"></rect><rect x="908" y="30" width="8" height="8" fill="#1f4d1f"></rect><rect x="916" y="30" width="8" height="8" fill="#1f4d1f"></rect><rect x="940" y="30" width="8" height="8" fill="#6cb4ee"><animate attributeName="opacity" values="1;.25;1" dur="4.2s" begin="1.4s" repeatCount="indefinite"/></rect><rect x="956" y="30" width="8" height="8" fill="#3f8f3a"></rect><rect x="964" y="30" width="8" height="8" fill="#3f8f3a"></rect><rect x="972" y="30" width="8" height="8" fill="#3f8f3a"></rect><rect x="980" y="30" width="8" height="8" fill="#e6e1d3"></rect></g>
</svg>
